<svg xmlns="http://www.w3.org/2000/svg" xmlns:xlink="http://www.w3.org/1999/xlink" width="14" height="14" version="1.1" viewBox="0 0 14 14"><title>Slice 1</title><desc>Created with Sketch.</desc><g id="Page-1" fill="none" fill-rule="evenodd" stroke="none" stroke-width="1"><g id="icon_issue_close" fill="#BD2C00"><g id="Page-1"><path id="Shape" d="M7,1.3 C10.14,1.3 12.7,3.86 12.7,7 C12.7,10.14 10.14,12.7 7,12.7 C3.86,12.7 1.3,10.14 1.3,7 C1.3,3.86 3.86,1.3 7,1.3 L7,1.3 L7,1.3 Z M7,0 C3.14,0 0,3.14 0,7 C0,10.86 3.14,14 7,14 C10.86,14 14,10.86 14,7 C14,3.14 10.86,0 7,0 L7,0 L7,0 Z M8,3 L6,3 L6,8 L8,8 L8,3 L8,3 L8,3 Z M8,9 L6,9 L6,11 L8,11 L8,9 L8,9 L8,9 Z"/></g></g></g></svg>